<?xml version="1.0" standalone="no"?><!DOCTYPE svg PUBLIC "-//W3C//DTD SVG 1.1//EN" "http://www.w3.org/Graphics/SVG/1.1/DTD/svg11.dtd"><svg t="1659948565011" class="icon" viewBox="0 0 1024 1024" version="1.1" xmlns="http://www.w3.org/2000/svg" p-id="4210" xmlns:xlink="http://www.w3.org/1999/xlink" width="200" height="200"><defs><style type="text/css">@font-face { font-family: feedback-iconfont; src: url("//at.alicdn.com/t/font_1031158_u69w8yhxdu.woff2?t=1630033759944") format("woff2"), url("//at.alicdn.com/t/font_1031158_u69w8yhxdu.woff?t=1630033759944") format("woff"), url("//at.alicdn.com/t/font_1031158_u69w8yhxdu.ttf?t=1630033759944") format("truetype"); }
</style></defs><path d="M851.81629667 609.09036999h97.09037a48.54518557 48.54518557 0 0 0 0-97.09036999h-97.09037v-48.54518557a250.00770333 250.00770333 0 0 0-10.19448888-66.02145109A242.72592555 242.72592555 0 0 0 997.45185223 172.18370333a48.54518557 48.54518557 0 0 0-97.09037113 0 145.63555555 145.63555555 0 0 1-103.88669553 139.32468224A242.72592555 242.72592555 0 0 0 706.18074112 240.14696334a125.24657778 125.24657778 0 0 0 0-19.41807445 194.18074112 194.18074112 0 0 0-388.36148224 0 125.24657778 125.24657778 0 0 0 0 19.41807445 242.72592555 242.72592555 0 0 0-92.23585109 71.36142223A145.63555555 145.63555555 0 0 1 123.6385189 172.18370333a48.54518557 48.54518557 0 0 0-97.09037113 0 242.72592555 242.72592555 0 0 0 155.83004444 225.24966001A250.00770333 250.00770333 0 0 0 172.18370333 463.45481443v48.54518557H75.09333333a48.54518557 48.54518557 0 0 0 0 97.09036999h97.09037v48.54518556a339.81629667 339.81629667 0 0 0 6.79632668 66.99235556A242.72592555 242.72592555 0 0 0 26.54814777 948.90666667a48.54518557 48.54518557 0 0 0 97.09037113 0 145.63555555 145.63555555 0 0 1 87.86678443-133.01380779 339.81629667 339.81629667 0 0 0 600.98939334 0A145.63555555 145.63555555 0 0 1 900.3614811 948.90666667a48.54518557 48.54518557 0 0 0 97.09037113 0 242.72592555 242.72592555 0 0 0-152.43188224-224.27875556A339.81629667 339.81629667 0 0 0 851.81629667 657.63555555z m-388.36148224 286.41659335A242.72592555 242.72592555 0 0 1 269.27407445 657.63555555v-194.18074112a145.63555555 145.63555555 0 0 1 145.63555556-145.63555555h48.54518442zM414.90963001 220.72888889a97.09036999 97.09036999 0 0 1 194.18073998 0z m339.81629554 436.90666666a242.72592555 242.72592555 0 0 1-194.18073998 237.87140779V317.81925888h48.54518442a145.63555555 145.63555555 0 0 1 145.63555556 145.63555555z" p-id="4211"></path></svg>