<?xml version="1.0" standalone="no"?><!DOCTYPE svg PUBLIC "-//W3C//DTD SVG 1.1//EN" "http://www.w3.org/Graphics/SVG/1.1/DTD/svg11.dtd"><svg t="1662565123351" class="icon" viewBox="0 0 1024 1024" version="1.1" xmlns="http://www.w3.org/2000/svg" p-id="1880" xmlns:xlink="http://www.w3.org/1999/xlink" width="200" height="200"><path d="M480.7 549.7L836.6 910.1c19 20.2 50.70000001 21.2 71 2.3 0.8-0.7 1.5-1.5 2.29999999-2.3 10.4-9.50000001 16.1-23 15.70000001-37.1 0.4-14.1-5.3-27.6-15.7-37.1l-319.1-323.3 319.1-323.29999999c10.4-9.50000001 16.1-23.1 15.7-37.10000001 0.4-14.1-5.3-27.6-15.7-37.1-19-20.2-50.70000001-21.2-71-2.3-0.8 0.7-1.5 1.5-2.3 2.3L480.7 475.5c-20.5 19.9-21 52.60000001-1.1 73.1 0.3 0.4 0.7 0.8 1.1 1.1z m-366.3 0L470.20000001 910.1c19 20.2 50.70000001 21.2 70.99999999 2.3 0.8-0.7 1.5-1.5 2.3-2.3 10.4-9.50000001 16.1-23 15.7-37.1 0.4-14.1-5.3-27.6-15.6-37.1l-319.2-323.3 319.2-323.29999999c10.4-9.50000001 16.1-23.1 15.6-37.10000001 0.4-14-5.3-27.6-15.6-37.1-19-20.2-50.70000001-21.2-71-2.3-0.8 0.7-1.5 1.5-2.3 2.3L114.4 475.5c-20.5 19.9-21 52.60000001-1.1 73.1l1.1 1.1z" p-id="1881"></path></svg>