<?xml version="1.0" standalone="no"?><!DOCTYPE svg PUBLIC "-//W3C//DTD SVG 1.1//EN" "http://www.w3.org/Graphics/SVG/1.1/DTD/svg11.dtd"><svg t="1703492998572" class="icon" viewBox="0 0 1024 1024" version="1.1" xmlns="http://www.w3.org/2000/svg" p-id="2993" xmlns:xlink="http://www.w3.org/1999/xlink" width="200" height="200"><path d="M232.16 835.52c25.44 0 41.76-9.6 47.04-29.76l51.36-141.6H694.4l47.04 141.6c8.64 20.16 24 29.76 47.04 29.76 31.2 0 47.04-11.04 47.04-34.56 0-14.4-3.84-29.76-12.96-47.04L579.2 107.36c-11.04-39.84-34.56-60-68.64-60-31.2 0-54.24 20.16-68.64 60l-240 646.56c-8.64 16.8-12.96 32.64-12.96 47.04 2.88 23.04 17.28 34.56 43.2 34.56zM509.6 159.2h3.84l149.76 423.84H359.84l149.76-423.84zM952.16 896H71.84c-22.56 0-39.84 18.24-39.84 39.84 0 21.6 18.24 39.84 39.84 39.84h879.84c22.56 0 39.84-18.24 39.84-39.84 0.48-21.12-17.28-39.84-39.36-39.84z" p-id="2994"></path></svg>