<?xml version="1.0" standalone="no"?><!DOCTYPE svg PUBLIC "-//W3C//DTD SVG 1.1//EN" "http://www.w3.org/Graphics/SVG/1.1/DTD/svg11.dtd"><svg t="1662450207301" class="icon" viewBox="0 0 1024 1024" version="1.1" xmlns="http://www.w3.org/2000/svg" p-id="1851" xmlns:xlink="http://www.w3.org/1999/xlink" width="200" height="200"><path d="M831.99999969 138.66666688h-53.33333344a106.66666688 106.66666688 0 0 0-106.66666594-106.66666688H351.99999969a106.66666688 106.66666688 0 0 0-106.66666594 106.66666688H192.00000031a106.66666688 106.66666688 0 0 0-106.66666687 106.66666687v639.99999938a106.66666688 106.66666688 0 0 0 106.66666687 106.66666687h639.99999938a106.66666688 106.66666688 0 0 0 106.66666687-106.66666687V245.33333375a106.66666688 106.66666688 0 0 0-106.66666687-106.66666688zM351.99999969 138.66666688h320.00000062v106.66666687H351.99999969V138.66666688z m480 746.66666624H192.00000031V245.33333375h53.33333344a106.66666688 106.66666688 0 0 0 106.66666594 106.66666594h320.00000062a106.66666688 106.66666688 0 0 0 106.66666594-106.66666594h53.33333344v639.99999938z" p-id="1852"></path><path d="M698.66666656 458.66666656h-373.33333312a26.66666625 26.66666625 0 0 0-26.66666719 26.66666719v53.3333325a26.66666625 26.66666625 0 0 0 26.66666719 26.66666719h373.33333312a26.66666625 26.66666625 0 0 0 26.66666719-26.66666719v-53.3333325a26.66666625 26.66666625 0 0 0-26.66666719-26.66666719zM698.66666656 672.00000031h-373.33333312a26.66666625 26.66666625 0 0 0-26.66666719 26.66666625v53.33333344a26.66666625 26.66666625 0 0 0 26.66666719 26.66666625h373.33333312a26.66666625 26.66666625 0 0 0 26.66666719-26.66666625v-53.33333344a26.66666625 26.66666625 0 0 0-26.66666719-26.66666625z" p-id="1853"></path></svg>