<?xml version="1.0" standalone="no"?><!DOCTYPE svg PUBLIC "-//W3C//DTD SVG 1.1//EN" "http://www.w3.org/Graphics/SVG/1.1/DTD/svg11.dtd"><svg t="1659951238866" class="icon" viewBox="0 0 1024 1024" version="1.1" xmlns="http://www.w3.org/2000/svg" p-id="1666" xmlns:xlink="http://www.w3.org/1999/xlink" width="200" height="200"><defs><style type="text/css">@font-face { font-family: feedback-iconfont; src: url("//at.alicdn.com/t/font_1031158_u69w8yhxdu.woff2?t=1630033759944") format("woff2"), url("//at.alicdn.com/t/font_1031158_u69w8yhxdu.woff?t=1630033759944") format("woff"), url("//at.alicdn.com/t/font_1031158_u69w8yhxdu.ttf?t=1630033759944") format("truetype"); }
</style></defs><path d="M703.698508 64.017012L703.698508 127.96137 127.91788 127.96137 127.91788 895.505487 767.527233 895.505487 767.527233 575.785745 831.526849 575.785745 831.526849 959.482591 64.027757 959.482591 64.027757 64.017012Z" p-id="1667"></path><path d="M191.533756 255.490905l383.739824 0 0 64.46829-383.739824 0 0-64.46829Z" p-id="1668"></path><path d="M191.533756 383.319246l383.739824 0 0 64.46829-383.739824 0 0-64.46829Z" p-id="1669"></path><path d="M191.533756 511.750313l191.869912 0 0 64.46829-191.869912 0 0-64.46829Z" p-id="1670"></path><path d="M191.533756 639.144772l191.869912 0 0 64.46829-191.869912 0 0-64.46829Z" p-id="1671"></path><path d="M458.388477 693.727924L855.373976 114.3954 960.726419 186.655144 563.74092 765.986645 438.929286 835.67789Z" p-id="1672"></path></svg>