<?xml version="1.0" standalone="no"?><!DOCTYPE svg PUBLIC "-//W3C//DTD SVG 1.1//EN" "http://www.w3.org/Graphics/SVG/1.1/DTD/svg11.dtd"><svg t="1659948584847" class="icon" viewBox="0 0 1024 1024" version="1.1" xmlns="http://www.w3.org/2000/svg" p-id="4349" xmlns:xlink="http://www.w3.org/1999/xlink" width="200" height="200"><defs><style type="text/css">@font-face { font-family: feedback-iconfont; src: url("//at.alicdn.com/t/font_1031158_u69w8yhxdu.woff2?t=1630033759944") format("woff2"), url("//at.alicdn.com/t/font_1031158_u69w8yhxdu.woff?t=1630033759944") format("woff"), url("//at.alicdn.com/t/font_1031158_u69w8yhxdu.ttf?t=1630033759944") format("truetype"); }
</style></defs><path d="M795.3408 69.632L732.6208 0H238.6944c-35.6352 0-49.408 26.4192-49.408 47.0528v185.856H258.56V84.6336c0-7.8848 6.656-14.5408 14.336-14.5408h353.4336c7.7824 0 11.6736 1.3824 11.6736 7.7824v246.784h251.5456c9.8816 0 13.7216 5.12 13.7216 12.5952v602.624c0 12.5952-5.12 14.4896-12.8 14.4896H272.896a14.6944 14.6944 0 0 1-14.336-14.5408V884.736H189.7472v86.784c-0.9216 30.72 15.4624 52.48 48.9472 52.48H924.672c35.84 0 48.0768-25.9584 48.0768-49.6128V265.5744l-17.92-19.456-159.5392-176.4352z m-86.9376 8.192l19.8144 22.2208 132.9152 146.0736 7.3216 8.8576h-135.8336c-10.24 0-16.7424-1.6896-19.456-5.12-2.7136-3.328-4.3008-8.704-4.7616-16.0256V77.824z m-55.808 468.3264h234.3424v68.3008h-234.3936v-68.3008z m0-136.4992h234.3424v68.2496h-234.3936V409.6z m0 273.0496h234.3424v68.3008h-234.3936v-68.3008zM51.2 288.0512v546.1504h535.808V288.0512H51.2z m267.9296 317.6448l-32.768 50.0736h32.768V716.8H154.4192L273.92 537.088 168.0384 375.5008H256.512L319.1808 469.504l62.6176-94.0032h88.4224L364.1344 537.088 483.7888 716.8H391.9872l-72.8576-111.104z" p-id="4350"></path></svg>