<?xml version="1.0" standalone="no"?><!DOCTYPE svg PUBLIC "-//W3C//DTD SVG 1.1//EN" "http://www.w3.org/Graphics/SVG/1.1/DTD/svg11.dtd"><svg t="1659947813677" class="icon" viewBox="0 0 1024 1024" version="1.1" xmlns="http://www.w3.org/2000/svg" p-id="3385" xmlns:xlink="http://www.w3.org/1999/xlink" width="200" height="200"><defs><style type="text/css">@font-face { font-family: feedback-iconfont; src: url("//at.alicdn.com/t/font_1031158_u69w8yhxdu.woff2?t=1630033759944") format("woff2"), url("//at.alicdn.com/t/font_1031158_u69w8yhxdu.woff?t=1630033759944") format("woff"), url("//at.alicdn.com/t/font_1031158_u69w8yhxdu.ttf?t=1630033759944") format("truetype"); }
</style></defs><path d="M572.56389973 646.87121067H952.88342507c21.0042464 0 38.03206187-16.69162453 38.03206186-37.2821824V460.46029653c0-20.59055787-17.02781547-37.28218347-38.03206186-37.28218346H572.56389973c-21.0042464 0-38.03206187 16.69162453-38.03206186 37.28218346v21.34371094H382.11870293l-107.96508053-105.83660267a38.22853653 38.22853653 0 0 0 1.09480107-9.0782272v-103.723408a118.8781632 118.8781632 0 0 0 81.65383146-112.89659733c0-65.65423467-53.22283733-118.877072-118.877072-118.877072-65.65423467 0-118.877072 53.22283733-118.877072 118.877072 0 51.75800853 33.08198827 95.78255147 79.25138134 112.10305813v101.831792L51.1460032 508.55405013c-7.19970987 6.99996053-11.2492736 16.52898773-11.24927253 26.47061227 0 9.94053333 4.04956373 19.46956053 11.24927253 26.47061227l147.25348907 144.35002773v159.00813973c0 21.1548768 17.20355093 38.30494293 38.4250112 38.30494294h297.7073344v41.96919786c0 20.59055787 17.02781547 37.28218347 38.03206186 37.28218347H952.88342507c21.0042464 0 38.03206187-16.69162453 38.03206186-37.28218347V795.99994347c0-20.59055787-17.02781547-37.28218347-38.03206186-37.28218347H572.56389973c-21.0042464 0-38.03206187 16.69162453-38.03206186 37.28218347v30.54964586H275.24951573V693.00785813l134.15735254-131.51258346a37.72315947 37.72315947 0 0 0 2.8237792-3.08028907h122.3011904v51.17404267c0 20.59055787 17.02781547 37.28218347 38.03206186 37.2821824z m342.28746454 186.4109152v74.56436586H610.5959616v-16.71782186c6.4913088-6.85915307 10.478656-16.10001707 10.47865493-26.27413654s-3.9873472-19.41498347-10.47865493-26.2741376v-5.29717866h304.25540267zM230.27643627 631.585472L131.77379947 535.0246624l98.5026368-96.56081067 98.50263573 96.56081067-98.50263573 96.5608096z m684.574928-59.2786272H610.5959616v-25.92266453c6.4913088-6.85915307 10.478656-16.10001707 10.47865493-26.2741376a38.04516053 38.04516053 0 0 0-7.240096-22.36756374h301.01684374v74.56436587z" p-id="3386"></path></svg>