<?xml version="1.0" standalone="no"?><!DOCTYPE svg PUBLIC "-//W3C//DTD SVG 1.1//EN" "http://www.w3.org/Graphics/SVG/1.1/DTD/svg11.dtd"><svg t="1703601629142" class="icon" viewBox="0 0 1024 1024" version="1.1" xmlns="http://www.w3.org/2000/svg" p-id="1943" xmlns:xlink="http://www.w3.org/1999/xlink" width="200" height="200"><path d="M761.91875 197.95625V139.90625c0-2.3625-1.85625-4.21875-4.21875-4.21875H424.5875c-1.85625 0-3.375 1.51875-3.375 3.375v59.56875c0 2.53125 2.025 4.3875 4.3875 4.3875h105.13125l-148.66875 617.625h-115.93125c-2.19375 0-4.05 1.85625-4.05 4.05v59.56875c0 2.19375 1.85625 4.05 4.05 4.05h356.56875c2.19375 0 4.05-1.85625 4.05-4.05v-59.56875c0-2.19375-1.85625-4.05-4.05-4.05h-118.96875l148.66875-617.625H756.6875c2.86875 0.3375 5.23125-2.025 5.23125-5.0625z" p-id="1944"></path></svg>