<?xml version="1.0" standalone="no"?><!DOCTYPE svg PUBLIC "-//W3C//DTD SVG 1.1//EN" "http://www.w3.org/Graphics/SVG/1.1/DTD/svg11.dtd"><svg t="1703495009727" class="icon" viewBox="0 0 1216 1024" version="1.1" xmlns="http://www.w3.org/2000/svg" p-id="2014" xmlns:xlink="http://www.w3.org/1999/xlink" width="237.5" height="200"><path d="M853.48437501 828.40625001a52.73437499 52.73437499 0 0 1 0 105.46874999h-527.34375001a52.73437499 52.73437499 0 0 1 0-105.46875001h527.34375001z m158.20312499-246.11132814a52.73437499 52.73437499 0 0 1 0 105.46875001h-843.75a52.73437499 52.73437499 0 1 1 0-105.46875h843.75z m-158.20312499-246.05859374a52.73437499 52.73437499 0 0 1 0 105.46875h-527.34375001a52.73437499 52.73437499 0 1 1 0-105.46875h527.34375001z m158.20312499-246.11132813a52.73437499 52.73437499 0 0 1 0 105.46875001h-843.75a52.73437499 52.73437499 0 1 1 0-105.46875001h843.75z" p-id="2015"></path></svg>