<?xml version="1.0" standalone="no"?><!DOCTYPE svg PUBLIC "-//W3C//DTD SVG 1.1//EN" "http://www.w3.org/Graphics/SVG/1.1/DTD/svg11.dtd"><svg t="1703600852104" class="icon" viewBox="0 0 1024 1024" version="1.1" xmlns="http://www.w3.org/2000/svg" p-id="2208" xmlns:xlink="http://www.w3.org/1999/xlink" width="200" height="200"><path d="M308.402087 458.255913h216.064c61.44 0 105.605565-10.685217 132.496696-31.877565 26.935652-21.281391 40.381217-53.158957 40.381217-95.67721798 0-28.31582601-4.541217-50.710261-13.66817401-67.09426a96.166957 96.166957 0 0 0-37.53182599-38.06608702 149.325913 149.325913 0 0 0-55.117913-17.31895699 536.21982599 536.21982599 0 0 0-66.56-3.91791301H308.402087v253.952zM244.869565 114.815217h250.034087c17.45252199 0 36.19617399 0.178087 56.27547801 0.578783 20.12382601 0.35617399 40.025043 1.469217 59.74817399 3.33913002 19.678609 1.869913 38.066087 4.674783 55.117913 8.37008698 17.096348 3.73982599 31.654957 9.349565 43.809392 16.784696a210.009043 210.009043 0 0 1 67.673043 64.912696c18.565565 27.60347799 27.870609 61.48452201 27.870609 101.776695 0 42.518261-10.418087 79.248696-31.29878299 110.191305-20.83617399 30.942609-50.621217 53.871304-89.26608701 68.78608701 50.042435 12.688696 88.33112999 35.038609 114.86608701 69.36486899 26.534957 34.281739 39.802435 76.04313001 39.80243499 125.284174 0 29.072696-5.342609 57.433043-15.93878299 85.03652201a212.591304 212.591304 0 0 1-47.19304301 73.238261 236.143304 236.143304 0 0 1-77.33426099 51.46712999c-30.72 13.04486999-66.159304 19.589565-106.31791301 19.589565H244.869565a44.521739 44.521739 0 0 1-44.52173899-44.52173898V159.33695701a44.521739 44.521739 0 0 1 44.52173899-44.52174001z m63.532522 709.23130501h270.692174c47.727304 0 85.03652199-12.688696 111.972174-38.06608701 26.935652-25.377391 40.381217-60.37147801 40.381217-105.11582599 0-26.134261-4.897391-47.727304-14.781217-64.91269601a113.61947799 113.61947799 0 0 0-39.223652-40.82643499 166.066087 166.066087 0 0 0-56.32-21.23686901 347.002435 347.002435 0 0 0-65.936696-6.14399999H308.402087v276.301913z" p-id="2209"></path></svg>