<?xml version="1.0" standalone="no"?><!DOCTYPE svg PUBLIC "-//W3C//DTD SVG 1.1//EN" "http://www.w3.org/Graphics/SVG/1.1/DTD/svg11.dtd"><svg t="1659951136596" class="icon" viewBox="0 0 1024 1024" version="1.1" xmlns="http://www.w3.org/2000/svg" p-id="1666" xmlns:xlink="http://www.w3.org/1999/xlink" width="200" height="200"><defs><style type="text/css">@font-face { font-family: feedback-iconfont; src: url("//at.alicdn.com/t/font_1031158_u69w8yhxdu.woff2?t=1630033759944") format("woff2"), url("//at.alicdn.com/t/font_1031158_u69w8yhxdu.woff?t=1630033759944") format("woff"), url("//at.alicdn.com/t/font_1031158_u69w8yhxdu.ttf?t=1630033759944") format("truetype"); }
</style></defs><path d="M256 423.61904733l512 0 0 73.142857-512 0 0-73.142857Z" p-id="1667"></path><path d="M256 569.90476233l512 0 0 73.142857-512 0 0-73.142857Z" p-id="1668"></path><path d="M256 716.19047633l512 0 0 73.142857-512 0 0-73.142857Z" p-id="1669"></path><path d="M914.285714 94.47619033l-146.285714 0L768 57.90476233l-109.714286 0 0 36.571429L365.714286 94.47619033 365.714286 57.90476233l-109.714286 0 0 36.571429L109.714286 94.47619033c-20.214857 0-36.571429 16.356571-36.571429 36.571429l0 841.142857c0 20.214857 16.356571 36.571429 36.571429 36.571429l804.571429 0c20.214857 0 36.571429-16.356571 36.571429-36.571429L950.857143 131.04761933C950.857143 110.83276233 934.500571 94.47619033 914.285714 94.47619033zM256 167.61904733l0 36.571429 109.714286 0L365.714286 167.61904733l292.571429 0 0 36.571429 109.714286 0L768 167.61904733l109.714286 0 0 109.714286L146.285714 277.33333333 146.285714 167.61904733 256 167.61904733zM146.285714 935.61904733L146.285714 313.90476233l731.428571 0 0 621.714286L146.285714 935.61904733z" p-id="1670"></path></svg>