<?xml version="1.0" standalone="no"?><!DOCTYPE svg PUBLIC "-//W3C//DTD SVG 1.1//EN" "http://www.w3.org/Graphics/SVG/1.1/DTD/svg11.dtd"><svg t="1662387657387" class="icon" viewBox="0 0 1024 1024" version="1.1" xmlns="http://www.w3.org/2000/svg" p-id="1759" xmlns:xlink="http://www.w3.org/1999/xlink" width="200" height="200"><path d="M32 520.330625c0-65.0325 12.665625-127.2159375 37.966875-186.58125 25.3003125-59.3653125 59.364375-110.461875 102.193125-153.29062499 42.796875-42.796875 93.894375-76.8609375 153.290625-102.19312501A470.8959375 470.8959375 0 0 1 512 40.3625c65.0015625 0 127.1840625 12.6346875 186.549375 37.9659375 59.39625001 25.30125001 110.49375001 59.3653125 153.290625 102.1940625 42.82874999 42.796875 76.89375001 93.894375 102.193125 153.290625A470.8959375 470.8959375 0 0 1 992 520.29875001c0 104.360625-30.4725 198.255-91.4165625 281.71312499-60.9140625 83.4271875-139.2 141.3984375-234.82875 173.88375-5.0165625 0-8.76375001-0.928125-11.240625-2.7871875-2.50875001-1.858125-3.93374999-3.7471875-4.243125-5.63625a55.741875 55.741875 0 0 1-0.4640625-8.4225 7.1840625 7.1840625 0 0 1-0.9290625-2.818125v-120.928125c0-38.090625-13.44-70.606875-40.32-97.486875 71.8753125-12.5109375 125.6353125-39.2053125 161.2490625-80.1440625 35.6128125-40.9396875 53.4496875-90.4875 53.4496875-148.614375 0-54.3796875-17.4965625-101.574375-52.520625-141.553125 12.5109375-40.010625 10.3125-82.18874999-6.534375-126.5653125-17.5284375-1.239375-36.5728125 1.734375-57.196875 8.9184375-20.625 7.1840625-35.923125 13.9040625-45.95625 20.12812499-9.9721875 6.2559375-19.04625001 12.2025-27.159375 17.83781251-36.2625-10.0021875-76.738125-15.01875001-121.393125-15.01875-44.71875001 0-84.8521875 5.0165625-120.4959375 15.01875-6.8746875-5.015625-14.8640625-10.46625001-23.90624999-16.41281251-9.075-5.945625-24.8371875-13.1296875-47.35031251-21.55312499-22.483125-8.454375-42.796875-12.046875-60.945-10.7765625-17.4965625 44.99625001-19.3546875 87.793125-5.6053125 128.4225-34.3734375 40.010625-51.560625 87.174375-51.560625 141.553125 0 58.126875 17.4965625 107.5209375 52.490625 148.119375 34.993125 40.6303125 88.753125 67.509375 161.24812499 80.64a133.4090625 133.4090625 0 0 0-37.47093749 65.65218749c-53.1403125 13.09875001-90.3328125 3.7153125-111.57656251-28.18124999-39.3909375-57.47624999-74.694375-78.1003125-105.94031249-61.8421875-4.396875 4.3659375-3.7471875 8.8875 1.858125 13.5946875 5.63625001 4.67624999 14.05874999 10.93125001 25.33125 18.7359375 11.240625 7.8346875 19.665 16.4128125 25.3003125 25.79531249 0.6196875 1.239375 2.353125 5.7909375 5.1721875 13.59562501a779.9221875 779.9221875 0 0 0 8.42343749 22.4821875c2.7871875 7.1840625 8.113125 15.174375 15.94781251 23.90625 7.80375001 8.7646875 16.8778125 16.104375 27.1903125 22.05 10.3125 5.9146875 24.5259375 10.3125 42.6421875 13.130625 18.11625001 2.78624999 38.7403125 2.941875 61.873125 0.4640625v94.20374999c0 0.9290625-0.1546875 2.4778125-0.4640625 4.70718751-0.309375 2.1675-0.9290625 3.71624999-1.858125 4.64531249-0.9290625 0.96-2.1984375 1.8890625-3.778125 2.84906251a11.7375 11.7375 0 0 1-6.069375 1.393125c-2.50875001 0-5.63625001-0.309375-9.3834375-0.928125-95.0090625-33.1359375-172.3359375-91.108125-232.040625-173.915625C61.851875 717.3471875 32 624.1034375 32 520.3625z" p-id="1760"></path></svg>