<?xml version="1.0" standalone="no"?><!DOCTYPE svg PUBLIC "-//W3C//DTD SVG 1.1//EN" "http://www.w3.org/Graphics/SVG/1.1/DTD/svg11.dtd"><svg t="1667048772001" class="icon" viewBox="0 0 1025 1024" version="1.1" xmlns="http://www.w3.org/2000/svg" p-id="1880" xmlns:xlink="http://www.w3.org/1999/xlink" width="200.1953125" height="200"><path d="M187.732004 156.526779c-13.330296-13.331627-34.948251-13.331627-48.263899 0-13.335622 13.326301-13.335622 34.937598 0 48.274552l48.263899 48.263899c13.331627 13.331627 34.933604 13.331627 48.269226 0 13.326301-13.326301 13.326301-34.932272 0-48.263899L187.732004 156.526779 187.732004 156.526779 187.732004 156.526779zM836.261339 156.526779l-48.269226 48.274552c-13.326301 13.331627-13.326301 34.937598 0 48.263899 13.315648 13.331627 34.932272 13.331627 48.269226 0l48.258573-48.263899c13.336953-13.336953 13.336953-34.942925 0-48.274552C871.194942 143.200478 849.592966 143.200478 836.261339 156.526779L836.261339 156.526779 836.261339 156.526779zM102.402665 426.66267 34.139994 426.66267C15.28903 426.66267 0.002666 441.945039 0.002666 460.789345c0 18.854958 15.28237 34.137328 34.137328 34.137328l68.262672 0c18.850963 0 34.132002-15.28237 34.132002-34.137328C136.534667 441.945039 121.253629 426.66267 102.402665 426.66267L102.402665 426.66267 102.402665 426.66267zM989.85468 426.66267l-68.264003 0c-18.849632 0-34.137328 15.28237-34.137328 34.126675 0 18.854958 15.286364 34.137328 34.137328 34.137328l68.264003 0c18.849632 0 34.142654-15.28237 34.142654-34.137328C1023.997334 441.945039 1008.704312 426.66267 989.85468 426.66267L989.85468 426.66267 989.85468 426.66267zM477.862672 34.132002l0 68.264003c0 18.854958 15.28237 34.13067 34.132002 34.13067 18.844306 0 34.137328-15.275712 34.137328-34.13067L546.132002 34.132002C546.132002 15.28237 530.838979 0 511.994674 0 493.145042 0 477.862672 15.28237 477.862672 34.132002L477.862672 34.132002 477.862672 34.132002zM273.066668 511.992008c0-131.955413 106.967267-238.928006 238.928006-238.928006 131.960739 0 238.933332 106.972593 238.933332 238.928006 0 131.960739-106.972593 238.937327-238.933332 238.937327C380.033935 750.929335 273.066668 643.951415 273.066668 511.992008L273.066668 511.992008 273.066668 511.992008zM204.803996 511.992008c0 169.675982 137.525348 307.211982 307.190677 307.211982S819.190677 681.667989 819.190677 511.992008c0-169.665329-137.530675-307.190677-307.196004-307.190677S204.803996 342.326679 204.803996 511.992008L204.803996 511.992008 204.803996 511.992008zM443.730671 989.862667c0 18.838979 15.28237 34.137328 34.132002 34.137328l68.269329 0c18.849632 0 34.132002-15.297017 34.132002-34.137328 0-18.860284-15.28237-34.132002-34.132002-34.132002l-68.269329 0C459.01304 955.730665 443.730671 971.002382 443.730671 989.862667L443.730671 989.862667 443.730671 989.862667zM375.467999 887.466662c0 18.834985 15.281038 34.132002 34.126675 34.132002l204.799999 0c18.849632 0 34.132002-15.297017 34.132002-34.132002 0-18.865611-15.28237-34.142654-34.132002-34.142654L409.594674 853.324008C390.743711 853.325339 375.467999 868.601051 375.467999 887.466662L375.467999 887.466662 375.467999 887.466662zM375.467999 887.466662" p-id="1881"></path></svg>