<?xml version="1.0" standalone="no"?><!DOCTYPE svg PUBLIC "-//W3C//DTD SVG 1.1//EN" "http://www.w3.org/Graphics/SVG/1.1/DTD/svg11.dtd"><svg t="1671169474461" class="icon" viewBox="0 0 1024 1024" version="1.1" xmlns="http://www.w3.org/2000/svg" p-id="2613" xmlns:xlink="http://www.w3.org/1999/xlink" width="200" height="200"><path d="M839.72369067 433.90293333h-209.09624889c81.0231277-299.23616237-55.8245357-314.5194003-55.8245357-314.5194003-58.00057363 0-45.97714489 45.86427733-50.36320238 53.51135764 0 146.33946075-155.43440118 261.0092563-155.43440118 261.0092563v414.99579733c0 40.96485452 55.8245357 55.7177363 77.72326873 55.71773629h314.16744772c29.56765867 0 53.64485689-77.5412243 53.64485688-77.54122429 77.72448237-264.29212445 77.72448237-342.92804267 77.72448237-342.92804267 0.00121363-54.60483792-52.54166755-50.24183941-52.54166755-50.24183941v0 0zM839.72369067 433.90293333z" p-id="2614"></path><path d="M283.19683318 434.04007348h-125.206528c-25.85759289 0-26.25687703 25.39762725-26.25687703 25.39762727l25.85759288 418.53716858c0 26.63917037 26.68407467 26.63917037 26.68407467 26.63917037h108.36620327c22.57593837 0 22.37568948-17.62190222 22.37568948-17.62190222v-421.21322193c0-32.14419437-31.82258252-31.73762845-31.82258253-31.73762844v0 0zM283.19683318 434.04007348z" p-id="2615"></path></svg>