<?xml version="1.0" standalone="no"?><!DOCTYPE svg PUBLIC "-//W3C//DTD SVG 1.1//EN" "http://www.w3.org/Graphics/SVG/1.1/DTD/svg11.dtd"><svg t="1670555202765" class="icon" viewBox="0 0 1024 1024" version="1.1" xmlns="http://www.w3.org/2000/svg" p-id="2339" xmlns:xlink="http://www.w3.org/1999/xlink" width="200" height="200"><path d="M438.976 692.16a9.28 9.28 0 0 0-9.024-9.472h-185.6c-85.888 0-163.008-71.168-162.88-170.624 0-99.52 76.992-170.56 162.88-170.56h185.6a9.28 9.28 0 0 0 8.96-9.472v-66.56A9.28 9.28 0 0 0 430.016 256h-185.6C109.248 256-0.128 370.496 0 511.936c0.064 141.44 109.312 256 244.352 255.872h185.6a9.28 9.28 0 0 0 8.96-9.408v-66.24zM779.648 256L593.92 256a9.28 9.28 0 0 0-9.024 9.472v66.368c0 5.184 4.032 9.472 8.96 9.472h185.6c85.952 0 163.008 71.168 162.944 170.624 0 99.52-76.992 170.56-162.88 170.56h-185.6a9.28 9.28 0 0 0-9.024 9.472v66.56c0 5.184 4.032 9.472 8.96 9.472h185.6C914.56 767.936 1024 653.44 1024 512c0-141.504-109.312-256-244.352-255.936z m-77.76 221.12a9.28 9.28 0 0 0-9.024-9.408l-361.728-0.128a9.28 9.28 0 0 0-8.96 9.472V543.36c0 5.184 4.032 9.472 8.96 9.472h361.6a9.28 9.28 0 0 0 9.024-9.472l0.128-66.176z" p-id="2340"></path></svg>