<?xml version="1.0" standalone="no"?><!DOCTYPE svg PUBLIC "-//W3C//DTD SVG 1.1//EN" "http://www.w3.org/Graphics/SVG/1.1/DTD/svg11.dtd"><svg t="1662385715149" class="icon" viewBox="0 0 1024 1024" version="1.1" xmlns="http://www.w3.org/2000/svg" p-id="2819" xmlns:xlink="http://www.w3.org/1999/xlink" width="200" height="200"><path d="M454.441585 406.944316l-79.597873 216.056777h161.203472l-78.901001-216.056777h-2.704598z m0 0" p-id="2820"></path><path d="M762.358513 177.285752H149.199579c-46.180785 0-83.613326 37.436634-83.613326 83.613326v613.158935c0 46.180785 37.432541 83.612303 83.613326 83.612303h613.158934c46.174646 0 83.613326-37.431517 83.613326-83.612303V260.899078c0-46.176692-37.438681-83.613326-83.613326-83.613326zM602.910011 806.279327l-44.791136-123.081223H352.79658l-44.814672 123.081223H230.36004l183.949522-477.596446h82.971713l183.943383 477.596446h-78.314647z m0 0" p-id="2821"></path><path d="M957.453886 149.417031c0-46.180785-37.434587-83.613326-83.615373-83.613326H372.167766v1.421372c-3.041266-0.61296-5.991458-1.421372-9.284457-1.421372H214.219431c-20.510126 0-37.152155 12.486382-37.152155 27.872814 0 15.381315 16.642029 27.867698 37.152155 27.867698h148.663878c3.292999 0 6.244214-0.808412 9.284457-1.38965v1.38965h529.543562v529.551748h1.420349c-0.610914 3.037173-1.420349 5.990434-1.420349 9.30697v148.660808c0 20.515243 12.456706 37.125549 27.872814 37.125549 15.412015 0 27.868721-16.610306 27.868721-37.125549V660.402935c0-3.315512-0.809435-6.269797-1.420349-9.30697h1.420349V149.417031z m0 0" p-id="2822"></path></svg>