<?xml version="1.0" standalone="no"?><!DOCTYPE svg PUBLIC "-//W3C//DTD SVG 1.1//EN" "http://www.w3.org/Graphics/SVG/1.1/DTD/svg11.dtd"><svg t="1671169470596" class="icon" viewBox="0 0 1024 1024" version="1.1" xmlns="http://www.w3.org/2000/svg" p-id="2478" xmlns:xlink="http://www.w3.org/1999/xlink" width="200" height="200"><path d="M512 341.333333c-94.293333 0-170.666667 76.373333-170.666667 170.666667s76.373333 170.666667 170.666667 170.666667 170.666667-76.373333 170.666667-170.666667-76.373333-170.666667-170.666667-170.666667z m381.44 128C873.813333 291.413333 732.586667 150.186667 554.666667 130.56V42.666667h-85.333334v87.893333C291.413333 150.186667 150.186667 291.413333 130.56 469.333333H42.666667v85.333334h87.893333c19.626667 177.92 160.853333 319.146667 338.773333 338.773333V981.333333h85.333334v-87.893333c177.92-19.626667 319.146667-160.853333 338.773333-338.773333H981.333333v-85.333334h-87.893333zM512 810.666667c-164.906667 0-298.666667-133.76-298.666667-298.666667s133.76-298.666667 298.666667-298.666667 298.666667 133.76 298.666667 298.666667-133.76 298.666667-298.666667 298.666667z" p-id="2479"></path></svg>