<?xml version="1.0" standalone="no"?><!DOCTYPE svg PUBLIC "-//W3C//DTD SVG 1.1//EN" "http://www.w3.org/Graphics/SVG/1.1/DTD/svg11.dtd"><svg t="1671169477514" class="icon" viewBox="0 0 1024 1024" version="1.1" xmlns="http://www.w3.org/2000/svg" p-id="2749" xmlns:xlink="http://www.w3.org/1999/xlink" width="200" height="200"><path d="M912 269.1c0 23.5-7.3 46-21.9 67.4-14.6 21.4-32.8 39.7-54.5 54.9-111.9 77.7-181.5 126-208.9 145.1-3 2.1-9.3 6.7-19 13.6-9.7 7-17.7 12.7-24.1 17s-14.2 9.1-23.2 14.6c-9.1 5.4-17.7 9.4-25.6 12-8.1 2.7-15.5 4-22.3 4h-1c-6.9 0-14.3-1.3-22.3-4-8.1-2.7-16.6-6.7-25.6-12-9.1-5.4-16.8-10.2-23.2-14.6-6.4-4.3-14.5-10-24.1-17-9.7-6.9-16-11.5-19-13.6-27-19.1-66.1-46.2-117-81.5-50.9-35.3-81.4-56.4-91.5-63.7-18.5-12.5-35.9-29.7-52.2-51.5-16.4-21.7-24.6-42.1-24.6-60.8 0-23.2 6.2-42.5 18.5-58s30-23.2 52.9-23.2h657.2c19.3 0 36.1 7 50.2 20.9 14.2 14 21.2 30.8 21.2 50.4z m0 131.3v354.5c0 19.6-7 36.4-20.9 50.4-14 14-30.8 20.9-50.4 20.9H183.5c-19.6 0-36.4-7-50.4-20.9-14.1-13.9-21-30.8-21-50.4V400.4c13.1 14.6 28.2 27.5 45.1 38.9 107.7 73.2 181.7 124.6 221.9 154 17 12.5 30.7 22.3 41.3 29.2 10.5 7 24.6 14.2 42.2 21.4 17.6 7.3 33.9 10.9 49.1 10.9h1c15.2 0 31.5-3.7 49.1-10.9 17.6-7.3 31.6-14.5 42.2-21.4 10.5-6.9 24.3-16.7 41.3-29.2 50.6-36.6 124.7-88 222.3-154 16.7-11.7 31.6-24.6 44.4-38.9z" p-id="2750"></path></svg>