<?xml version="1.0" standalone="no"?><!DOCTYPE svg PUBLIC "-//W3C//DTD SVG 1.1//EN" "http://www.w3.org/Graphics/SVG/1.1/DTD/svg11.dtd"><svg t="1662388962340" class="icon" viewBox="0 0 1024 1024" version="1.1" xmlns="http://www.w3.org/2000/svg" p-id="1789" xmlns:xlink="http://www.w3.org/1999/xlink" width="200" height="200"><path d="M940.09150391 834.115625L724.73837891 618.6359375c-2.51015625-2.51015625-5.32265625-4.42265625-7.93828125-6.4265625a354.1359375 354.1359375 0 0 0 57.55781249-193.9921875C774.45634766 221.53203125 615.05087891 62 418.27431641 62 221.50478516 62 62.00087891 221.525 62.00087891 418.22421875c0 196.79765625 159.50390625 356.22421875 356.175 356.22421875 71.6203125 0 138.11484375-21.3046875 194.0625-57.66328125 2.0109375 2.70703125 3.91640625 5.42109375 6.328125 7.8328125l215.353125 215.38125a74.76328125 74.76328125 0 0 0 53.03671875 22.00078125c19.18125001 0 38.36953125-7.33359375 53.03671875-21.90234375 29.32734375-29.22890625 29.32734375-76.74609375 0.0984375-105.98203125M418.28134766 662.0328125C283.88603516 662.0328125 174.50087891 552.640625 174.50087891 418.22421875c0-134.3109375 109.38515625-243.71015625 243.7734375-243.71015625 134.40234375 0 243.68203125 109.39921875 243.68203125 243.80859375 0 134.3109375-109.38515625 243.71015625-243.675 243.71015625" p-id="1790"></path></svg>