<?xml version="1.0" standalone="no"?><!DOCTYPE svg PUBLIC "-//W3C//DTD SVG 1.1//EN" "http://www.w3.org/Graphics/SVG/1.1/DTD/svg11.dtd"><svg t="1726211596894" class="icon" viewBox="0 0 1024 1024" version="1.1" xmlns="http://www.w3.org/2000/svg" p-id="3461" xmlns:xlink="http://www.w3.org/1999/xlink" width="200" height="200"><path d="M652.100163 1024a52.268365 52.268365 0 0 1-47.783739-31.07877c-35.333415-79.68835-70.321859-108.801829-85.228797-108.927274h-0.031361c-12.962555 0-45.400302 22.945812-85.281065 109.052718a52.268365 52.268365 0 0 1-73.876108 23.123525l-204.891992-120.217241a52.268365 52.268365 0 0 1-16.182286-75.266446c20.039691-28.224917 35.228878-55.404467 43.905427-78.402548 8.488383-22.517212 10.620932-41.208379 5.718159-50.010372-7.254849-12.983462-43.361836-26.374617-121.262608-21.356854A52.268365 52.268365 0 0 1 11.530438 618.66928v-219.318061a52.268365 52.268365 0 0 1 59.063253-51.818858c82.16587 10.704561 115.042672-4.181469 120.948997-13.589775 6.805341-10.809098 4.181469-50.888481-48.902282-132.489852a52.268365 52.268365 0 0 1 17.363551-73.572951L360.975822 9.972804a52.268365 52.268365 0 0 1 73.959737 23.301237c36.587856 79.782433 71.37768 108.7182 85.939646 108.7182h0.104537c12.544408-0.11499 43.832251-23.531218 81.831353-110.578953a52.268365 52.268365 0 0 1 74.346523-24.179346L876.435987 124.085099a52.268365 52.268365 0 0 1 15.241456 76.646331c-55.017681 72.71575-60.056352 110.578954-54.285925 121.482135 5.226837 10.035526 37.22553 28.026298 120.530851 24.38842a52.268365 52.268365 0 0 1 54.547266 52.216097v223.49953a52.268365 52.268365 0 0 1-55.801707 52.142921c-78.86251-5.341827-117.081138 10.234146-123.436971 22.015436-6.14676 11.300421-1.045367 51.139369 57.045694 128.768345a52.268365 52.268365 0 0 1-15.398261 76.395443L678.547956 1016.818327a52.268365 52.268365 0 0 1-26.447793 7.181673zM518.951729 779.457226h1.045367c43.570909 0.355425 84.287966 23.938911 121.01172 70.102331a388.782555 388.782555 0 0 1 32.751358 48.891829l99.874392-58.592837c-18.649353-30.033403-31.528278-57.495202-39.054922-82.981257-12.387603-42.055127-10.077341-79.17612 6.868063-110.348973 19.861979-36.472865 57.097962-60.411777 110.808935-71.137245a353.470048 353.470048 0 0 1 55.770345-6.272204V450.751929a348.201397 348.201397 0 0 1-56.198946-7.672996c-52.080199-11.864919-88.051288-36.180163-106.972437-72.266242-16.130018-30.733799-18.178937-66.955776-6.073584-107.672832 7.129405-23.970272 19.098861-49.539957 36.2847-77.357181l-102.101025-59.889093c-16.548164 30.190208-33.692188 54.285924-51.818858 72.945731-30.315652 31.266936-63.767406 47.292417-99.194904 47.61648h-1.045367c-42.86006 0-83.242599-22.88309-120.070889-68.053411a392.232268 392.232268 0 0 1-34.497121-50.386704l-108.00735 63.359712c17.624893 32.490016 29.270285 61.72894 35.385683 88.542611 9.742823 42.86006 5.111846 79.751072-13.757034 109.763567-21.660011 34.423945-59.303687 55.634448-111.854302 63.06701a338.834905 338.834905 0 0 1-52.027931 2.968843v109.763567c30.775614 1.045367 57.244314 5.226837 80.096044 12.429418 38.814488 12.283066 66.903508 33.598105 83.514394 63.328351 20.907346 37.455511 21.189595 83.828004 0.836294 137.83168a385.813712 385.813712 0 0 1-25.831027 54.202295l110.411695 64.812773c17.499449-30.420189 35.49022-54.55772 54.421823-73.11299 30.786067-30.211115 64.237821-45.515293 99.424884-45.515292z m-6.951692-87.267263c-99.309894 0-180.189963-80.838254-180.189963-180.189963s80.838254-180.189963 180.189963-180.189963 180.189963 80.838254 180.189962 180.189963-80.838254 180.189963-180.189962 180.189963z m0-255.843195a75.653232 75.653232 0 1 0 75.653232 75.653232 75.747315 75.747315 0 0 0-75.653232-75.653232z" p-id="3462"></path></svg>