<?xml version="1.0" standalone="no"?><!DOCTYPE svg PUBLIC "-//W3C//DTD SVG 1.1//EN" "http://www.w3.org/Graphics/SVG/1.1/DTD/svg11.dtd"><svg t="1659948339601" class="icon" viewBox="0 0 1024 1024" version="1.1" xmlns="http://www.w3.org/2000/svg" p-id="3932" xmlns:xlink="http://www.w3.org/1999/xlink" width="200" height="200"><defs><style type="text/css">@font-face { font-family: feedback-iconfont; src: url("//at.alicdn.com/t/font_1031158_u69w8yhxdu.woff2?t=1630033759944") format("woff2"), url("//at.alicdn.com/t/font_1031158_u69w8yhxdu.woff?t=1630033759944") format("woff"), url("//at.alicdn.com/t/font_1031158_u69w8yhxdu.ttf?t=1630033759944") format("truetype"); }
</style></defs><path d="M960 64H64v224h1v164h-1v64h1v160h-1v64h1v219.7h275v0.3h64v-0.3h216v0.3h64v-0.3h275V288h1V64zM620 452H404V288h216v164z m0 224H404V516h216v160z m64-160h211v160H684V516zM129 288h211v164H129V288z m0 228h211v160H129V516z m0 379.7V740h211v155.7H129z m275 0V740h216v155.7H404z m280 0V740h211v155.7H684zM895 452H684V288h211v164z" p-id="3933"></path></svg>