<?xml version="1.0" standalone="no"?><!DOCTYPE svg PUBLIC "-//W3C//DTD SVG 1.1//EN" "http://www.w3.org/Graphics/SVG/1.1/DTD/svg11.dtd"><svg t="1659948307874" class="icon" viewBox="0 0 1025 1024" version="1.1" xmlns="http://www.w3.org/2000/svg" p-id="3797" xmlns:xlink="http://www.w3.org/1999/xlink" width="200.1953125" height="200"><defs><style type="text/css">@font-face { font-family: feedback-iconfont; src: url("//at.alicdn.com/t/font_1031158_u69w8yhxdu.woff2?t=1630033759944") format("woff2"), url("//at.alicdn.com/t/font_1031158_u69w8yhxdu.woff?t=1630033759944") format("woff"), url("//at.alicdn.com/t/font_1031158_u69w8yhxdu.ttf?t=1630033759944") format("truetype"); }
</style></defs><path d="M769.317 795.397v207.155a21.44 21.44 0 0 0 21.3 21.448h213.776a21.478 21.478 0 0 0 21.37-21.448V795.397a21.383 21.383 0 0 0-21.37-21.337h-85.496V483.357a35.257 35.257 0 0 0-35.17-35.243h-349.56V298.571H683.82a21.39 21.39 0 0 0 21.37-21.371V21.373A21.39 21.39 0 0 0 683.82 0.002H341.908a21.371 21.371 0 0 0-21.371 21.37v255.789a21.371 21.371 0 0 0 21.371 21.41h149.62v149.545H142.041a35.27 35.27 0 0 0-35.245 35.241V774.06H21.373A21.337 21.337 0 0 0 0.002 795.397v207.153a21.407 21.407 0 0 0 21.37 21.448H235.04a21.431 21.431 0 0 0 21.371-21.448V795.397a21.337 21.337 0 0 0-21.371-21.337h-85.456V490.9h341.94v283.16h-85.496a21.36 21.36 0 0 0-21.371 21.337v207.155A21.431 21.431 0 0 0 406.028 1024h213.708a21.448 21.448 0 0 0 21.338-21.448V795.397a21.371 21.371 0 0 0-21.338-21.337h-85.57V490.9H876.15v283.16h-85.533a21.371 21.371 0 0 0-21.3 21.337z" p-id="3798"></path></svg>