<?xml version="1.0" standalone="no"?><!DOCTYPE svg PUBLIC "-//W3C//DTD SVG 1.1//EN" "http://www.w3.org/Graphics/SVG/1.1/DTD/svg11.dtd"><svg t="1659947845545" class="icon" viewBox="0 0 1024 1024" version="1.1" xmlns="http://www.w3.org/2000/svg" p-id="3658" xmlns:xlink="http://www.w3.org/1999/xlink" width="200" height="200"><defs><style type="text/css">@font-face { font-family: feedback-iconfont; src: url("//at.alicdn.com/t/font_1031158_u69w8yhxdu.woff2?t=1630033759944") format("woff2"), url("//at.alicdn.com/t/font_1031158_u69w8yhxdu.woff?t=1630033759944") format("woff"), url("//at.alicdn.com/t/font_1031158_u69w8yhxdu.ttf?t=1630033759944") format("truetype"); }
</style></defs><path d="M465.1235552 235.2924448L330.86577813 76.91377813H178.4035552l134.25777813 157.9235552h152.46222187z m395.49155627 0l-134.25777814-157.92355627h-152.46222186l134.71288853 157.92355627h152.00711147z m-197.51822294 0l-134.25777706-157.92355627H376.37688853l134.25777814 157.92355627h152.46222186z m254.86222294-158.37866667h-146.09066667l134.71288853 157.9235552h70.99733334V136.53333333c-0.45511147-33.67822187-25.94133333-59.6195552-59.6195552-59.6195552z m-785.06666667 0h-5.9164448c-33.67822187 0-59.1644448 25.48622187-59.1644448 59.16444374v98.75911146h199.79377813L132.8924448 76.91377813zM67.8115552 887.46666667c0 33.67822187 25.48622187 59.1644448 59.1644448 59.1644448h790.98311147c33.67822187 0 59.1644448-25.48622187 59.16444373-59.1644448V274.88711147H67.8115552v612.5795552zM384.11377813 452.8355552c0-33.67822187 27.76177813-49.60711147 59.16444374-49.6071104 10.0124448 0 21.84533333 1.8204448 31.85777813 7.73688853l225.28 130.61688854c27.30666667 14.5635552 37.77422187 48.24177813 23.21066667 75.5484448-5.00622187 10.0124448-13.19822187 17.74933333-23.21066667 23.21066666l-225.28 130.61688854c-10.0124448 5.9164448-19.56977813 7.73688853-31.85777813 7.7368896-31.85777813 0-59.1644448-15.92888853-59.16444374-49.60711147V452.8355552z" p-id="3659"></path></svg>